HIERARCHY
ROOT Hips
{
	OFFSET 0.000000 0.000000 0.000000
	CHANNELS 6 Xposition Yposition Zposition Xrotation Yrotation Zrotation
	JOINT LeftUpLeg_virtual
	{
		OFFSET 0.000000 0.000000 0.000000
		CHANNELS 3 Xrotation Yrotation Zrotation
		JOINT LeftUpLeg
		{
			OFFSET 10.205400 -3.823500 0.155100
			CHANNELS 3 Xrotation Yrotation Zrotation
			JOINT LeftLeg
			{
				OFFSET 0.708757 -12.982077 0.567790
				CHANNELS 3 Xrotation Yrotation Zrotation
				JOINT LeftFoot
				{
					OFFSET -0.708756 -10.717838 -2.184338
					CHANNELS 3 Xrotation Yrotation Zrotation
					JOINT LeftToeBase
					{
						OFFSET 0.108149 -7.191104 7.560241
						CHANNELS 3 Xrotation Yrotation Zrotation
						JOINT LeftToe_End
						{
							OFFSET 0.070230 0.081724 4.490308
							CHANNELS 3 Xrotation Yrotation Zrotation
							End Site
							{
								OFFSET 0 0 0
							}
						}
					}
				}
			}
		}
	}
	JOINT RightUpLeg_virtual
	{
		OFFSET 0.000000 0.000000 0.000000
		CHANNELS 3 Xrotation Yrotation Zrotation
		JOINT RightUpLeg
		{
			OFFSET -10.205400 -3.823500 0.005500
			CHANNELS 3 Xrotation Yrotation Zrotation
			JOINT RightLeg
			{
				OFFSET -0.708756 -12.982134 0.610632
				CHANNELS 3 Xrotation Yrotation Zrotation
				JOINT RightFoot
				{
					OFFSET 0.708754 -10.717769 -1.945823
					CHANNELS 3 Xrotation Yrotation Zrotation
					JOINT RightToeBase
					{
						OFFSET -0.108140 -7.191069 7.372968
						CHANNELS 3 Xrotation Yrotation Zrotation
						JOINT RightToe_End
						{
							OFFSET -0.070227 0.081735 4.479403
							CHANNELS 3 Xrotation Yrotation Zrotation
							End Site
							{
								OFFSET 0 0 0
							}
						}
					}
				}
			}
		}
	}
	JOINT Spine_virtual
	{
		OFFSET 0.000000 0.000000 0.000000
		CHANNELS 3 Xrotation Yrotation Zrotation
		JOINT Spine
		{
			OFFSET 0.000000 6.876099 0.125700
			CHANNELS 3 Xrotation Yrotation Zrotation
			JOINT Spine1
			{
				OFFSET 0.000000 5.730043 0.104720
				CHANNELS 3 Xrotation Yrotation Zrotation
				JOINT Spine1_split
				{
					OFFSET 0.000000 5.730043 0.104720
					CHANNELS 3 Xrotation Yrotation Zrotation
					JOINT Spine2
					{
						OFFSET 0.000000 5.730043 0.104720
						CHANNELS 3 Xrotation Yrotation Zrotation
						JOINT Neck_virtual
						{
							OFFSET 0.000000 0.000000 0.000000
							CHANNELS 3 Xrotation Yrotation Zrotation
							JOINT Neck
							{
								OFFSET 0.000000 10.314075 0.188496
								CHANNELS 3 Xrotation Yrotation Zrotation
								JOINT Head
								{
									OFFSET 0.000000 7.643700 -2.377400
									CHANNELS 3 Xrotation Yrotation Zrotation
									JOINT HeadTop_End
									{
										OFFSET 0.000000 43.788605 -13.619600
										CHANNELS 3 Xrotation Yrotation Zrotation
										End Site
										{
											OFFSET 0 0 0
										}
									}
								}
							}
						}
						JOINT LeftShoulder_virtual
						{
							OFFSET 0.000000 0.000000 0.000000
							CHANNELS 3 Xrotation Yrotation Zrotation
							JOINT LeftShoulder
							{
								OFFSET 2.196100 4.412489 0.087492
								CHANNELS 3 Xrotation Yrotation Zrotation
								JOINT LeftShoulder_split
								{
									OFFSET 2.196100 4.412489 0.087492
									CHANNELS 3 Xrotation Yrotation Zrotation
									JOINT LeftArm
									{
										OFFSET 8.771219 -2.981674 -0.026999
										CHANNELS 3 Xrotation Yrotation Zrotation
										JOINT LeftForeArm
										{
											OFFSET 8.512804 0.000000 -0.000000
											CHANNELS 3 Xrotation Yrotation Zrotation
											JOINT LeftHand
											{
												OFFSET 18.484802 0.000000 -0.000000
												CHANNELS 3 Xrotation Yrotation Zrotation
												End Site
												{
													OFFSET 0 0 0
												}
											}
										}
									}
								}
							}
						}
						JOINT RightShoulder_virtual
						{
							OFFSET 0.000000 0.000000 0.000000
							CHANNELS 3 Xrotation Yrotation Zrotation
							JOINT RightShoulder
							{
								OFFSET -2.196100 4.412496 0.070690
								CHANNELS 3 Xrotation Yrotation Zrotation
								JOINT RightShoulder_split
								{
									OFFSET -2.196100 4.412496 0.070690
									CHANNELS 3 Xrotation Yrotation Zrotation
									JOINT RightArm
									{
										OFFSET -8.771282 -2.981682 -0.094208
										CHANNELS 3 Xrotation Yrotation Zrotation
										JOINT RightForeArm
										{
											OFFSET -8.494598 0.000000 0.000000
											CHANNELS 3 Xrotation Yrotation Zrotation
											JOINT RightHand
											{
												OFFSET -18.483803 0.000000 0.000001
												CHANNELS 3 Xrotation Yrotation Zrotation
												End Site
												{
													OFFSET 0 0 0
												}
											}
										}
									}
								}
							}
						}
					}
				}
			}
		}
	}
}
MOTION
Frames: 5
Frame Time: 0.03333333
5.734282 35.179554 -4.889258 0.000000 0.000000 0.000000 -0.742820 -21.056905 0.249764 -6.597075 12.797492 -4.720314 19.406480 2.737308 5.955513 -11.570322 20.776378 -5.036837 0.101964 -1.938822 0.485304 0.000000 0.000000 0.000000 -0.262858 -19.908994 0.307644 -9.484859 -7.688136 -8.126737 15.844079 10.734716 0.256703 -19.331237 -11.598352 11.956003 5.333696 3.093982 -8.845435 0.000000 0.000000 0.000000 -2.047987 -16.566431 -0.947372 3.497212 0.627620 -0.349322 -0.119617 -1.662097 0.013335 0.140747 -0.272262 0.036994 0.000000 0.000000 0.000000 1.189937 0.294378 -0.337786 -0.869304 8.715648 7.715821 -0.540813 1.426227 -14.317366 0.000000 0.000000 0.000000 0.038789 -1.103306 -0.486144 2.703204 -3.842058 -8.525397 2.249779 -1.608921 -3.863488 -11.436485 -9.955862 -60.751384 4.878392 -19.304674 -3.480457 0.000000 0.000000 0.000000 0.784262 -0.771745 -0.118721 2.598909 -3.881386 15.848749 -6.857637 -0.545610 -0.145735 6.230014 -0.671299 66.212428 -1.302206 17.346782 4.431094 0.000000 0.000000 0.000000 
5.979533 35.187794 -4.822760 0.000000 0.000000 0.000000 -0.671267 -21.955857 0.191279 -6.357114 12.940595 -5.261095 19.210231 2.786994 6.129261 -11.571344 21.185534 -4.698557 -0.199867 -1.818669 0.511581 0.000000 0.000000 0.000000 -0.195278 -20.730661 0.228691 -9.542442 -7.317403 -7.987388 15.611331 11.113355 0.184236 -19.647618 -11.694511 11.438526 5.428204 3.041068 -8.753815 0.000000 0.000000 0.000000 -2.011000 -17.259034 -1.083502 3.354786 0.374000 -0.462721 -0.106968 -1.840828 0.047386 0.150266 -0.273997 0.036125 0.000000 0.000000 0.000000 1.204731 0.113448 -0.324458 -0.843145 8.947998 7.884626 -0.522133 2.038847 -14.445102 0.000000 0.000000 0.000000 0.061245 -1.285812 -0.466144 2.787708 -4.252799 -8.702787 2.206702 -1.489094 -3.736004 -12.142230 -11.273768 -61.373293 5.112621 -19.671467 -3.550430 0.000000 0.000000 0.000000 0.780982 -0.940342 -0.101590 2.517065 -4.008028 16.248477 -6.766481 -0.602951 -0.257815 5.719723 -0.449781 66.736358 -0.821633 17.754795 4.112131 0.000000 0.000000 0.000000 
6.209584 35.198051 -4.758390 0.000000 0.000000 0.000000 -0.562592 -22.794421 0.115306 -6.188904 13.087712 -5.705435 19.043370 2.840778 6.322586 -11.515730 21.559028 -4.340742 -0.509437 -1.713041 0.534686 0.000000 0.000000 0.000000 -0.097633 -21.496619 0.133122 -9.543729 -6.998302 -7.790585 15.294867 11.376812 0.141494 -19.929963 -11.795283 10.809623 5.539119 2.984443 -8.624694 0.000000 0.000000 0.000000 -1.933700 -17.920924 -1.229755 3.210120 0.108484 -0.613018 -0.067155 -2.022309 0.089450 0.160943 -0.263634 0.031797 0.000000 0.000000 0.000000 1.251811 -0.069345 -0.300127 -0.794606 9.176538 8.039682 -0.602500 2.519743 -14.485146 0.000000 0.000000 0.000000 0.120676 -1.469071 -0.433471 2.863052 -4.717989 -8.858935 2.168785 -1.365329 -3.650935 -12.695962 -12.857893 -61.959665 5.356053 -20.287788 -3.558937 0.000000 0.000000 0.000000 0.819238 -1.110114 -0.072772 2.417205 -4.141637 16.707874 -6.696148 -0.663644 -0.389115 5.090541 -0.199806 67.218118 -0.233395 18.073160 3.770818 0.000000 0.000000 0.000000 
6.420805 35.212799 -4.699534 0.000000 0.000000 0.000000 -0.397661 -23.532838 0.033006 -6.103049 13.239603 -6.057038 18.876666 2.891317 6.527059 -11.435480 21.878312 -3.965181 -0.786253 -1.622079 0.559038 0.000000 0.000000 0.000000 0.043332 -22.197492 0.034477 -9.526978 -6.726760 -7.597096 14.898012 11.547986 0.145847 -20.012331 -11.885236 10.239909 5.547728 2.942959 -8.463625 0.000000 0.000000 0.000000 -1.793715 -18.528111 -1.370418 3.050155 -0.168996 -0.816384 -0.007259 -2.206864 0.131356 0.166849 -0.247676 0.029620 0.000000 0.000000 0.000000 1.321975 -0.254093 -0.274346 -0.721791 9.403851 8.190037 -0.743892 2.896007 -14.427994 0.000000 0.000000 0.000000 0.209058 -1.653197 -0.394443 2.929641 -5.220813 -8.965587 2.130825 -1.228158 -3.582938 -13.128396 -14.667411 -62.513136 5.615005 -21.178216 -3.498453 0.000000 0.000000 0.000000 0.892503 -1.281949 -0.043286 2.301367 -4.299752 17.219071 -6.643445 -0.743876 -0.548801 4.385369 0.060293 67.639145 0.457913 18.326347 3.403023 0.000000 0.000000 0.000000 
6.616111 35.232597 -4.647340 0.000000 0.000000 0.000000 -0.173765 -24.136622 -0.050424 -6.127460 13.393897 -6.311745 18.691011 2.911396 6.724861 -11.324103 22.113048 -3.623778 -1.050009 -1.544029 0.601445 0.000000 0.000000 0.000000 0.247953 -22.822560 -0.057333 -9.511621 -6.494757 -7.441908 14.409283 11.662493 0.209732 -19.859641 -11.948230 9.860158 5.443949 2.926366 -8.271651 0.000000 0.000000 0.000000 -1.572616 -19.063020 -1.497140 2.863793 -0.456585 -1.085884 0.064869 -2.394425 0.165217 0.171454 -0.229311 0.029481 0.000000 0.000000 0.000000 1.406109 -0.441168 -0.254613 -0.645233 9.627504 8.348320 -0.909213 3.199186 -14.260590 0.000000 0.000000 0.000000 0.318183 -1.838707 -0.357692 2.987347 -5.749422 -8.999633 2.088480 -1.088958 -3.559454 -13.472632 -16.637572 -63.038650 5.886123 -22.251998 -3.380677 0.000000 0.000000 0.000000 0.994361 -1.457819 -0.023138 2.173428 -4.490787 17.771619 -6.595885 -0.859339 -0.731224 3.664632 0.301261 68.004335 1.236285 18.586131 3.011394 0.000000 0.000000 0.000000 
